<?xml version="1.0" encoding="utf-8"?>
<svg xmlns="http://www.w3.org/2000/svg" style="margin: auto; background-color: rgb(255, 251, 243); display: block; shape-rendering: auto;" width="280" height="250" preserveAspectRatio="xMidYMid">
<style type="text/css">
  text {
    text-anchor: middle; font-size: 80px; opacity: 0;
  }
</style>
<g style="transform-origin:140px 125px;transform:scale(1)">
<g transform="translate(140,125)">
  <g transform="translate(0,0)"><g class="path" style="transform: scale(0.91); transform-origin: -113.079985px -1.347399px; animation: 1s linear -0.5775s infinite normal forwards running breath-d18d5f19-ac3f-4da8-ac1e-c3e6915f135c;"><path d="M21.84-24.48L21.84-24.48L21.84-24.48Q26-25.84 31.52-25.84L31.52-25.84L31.52-25.84Q37.04-25.84 37.04-22.64L37.04-22.64L37.04-22.64Q37.04-20.72 34.96-19.48L34.96-19.48L34.96-19.48Q32.88-18.24 28.96-18.24L28.96-18.24L28.96-18.24Q22.80-18.24 19.04-21.20L19.04-21.20L19.04-21.20Q17.60-19.68 16.80-18.64L16.80-18.64L16.80-18.64Q16-17.60 15-14.64L15-14.64L15-14.64Q14-11.68 14-7.52L14-7.52L14-7.52Q14-3.36 17.52-0.28L17.52-0.28L17.52-0.28Q21.04 2.80 24.84 2.80L24.84 2.80L24.84 2.80Q28.64 2.80 31.92 1.36L31.92 1.36L31.92 1.36Q35.20-0.08 37.12-2L37.12-2L37.12-2Q39.04-3.92 40.48-6.24L40.48-6.24L40.48-6.24Q42.48-9.20 43.12-11.44L43.12-11.44L44.72-11.04L44.72-11.04Q44.72-10.80 44.12-9.36L44.12-9.36L44.12-9.36Q43.52-7.92 41.92-5.56L41.92-5.56L41.92-5.56Q40.32-3.20 38.08-1L38.08-1L38.08-1Q35.84 1.20 31.92 2.80L31.92 2.80L31.92 2.80Q28 4.40 23.36 4.40L23.36 4.40L23.36 4.40Q14.80 4.40 10 0.76L10 0.76L10 0.76Q5.20-2.88 5.20-8.72L5.20-8.72L5.20-8.72Q5.20-14.56 8.84-18L8.84-18L8.84-18Q12.48-21.44 17.44-22.80L17.44-22.80L17.44-22.80Q13.84-27.20 13.84-33.24L13.84-33.24L13.84-33.24Q13.84-39.28 18.68-44L18.68-44L18.68-44Q23.52-48.72 32.64-48.72L32.64-48.72L32.64-48.72Q39.60-48.72 43.32-46.28L43.32-46.28L43.32-46.28Q47.04-43.84 47.04-40.20L47.04-40.20L47.04-40.20Q47.04-36.56 45.16-32.76L45.16-32.76L45.16-32.76Q43.28-28.96 43.04-26.72L43.04-26.72L41.36-26.72L41.36-26.72Q41.60-29.12 43.48-32.88L43.48-32.88L43.48-32.88Q45.36-36.64 45.36-39.88L45.36-39.88L45.36-39.88Q45.36-43.12 41.96-45.20L41.96-45.20L41.96-45.20Q38.56-47.28 33.32-47.28L33.32-47.28L33.32-47.28Q28.08-47.28 24.40-43.24L24.40-43.24L24.40-43.24Q20.72-39.20 20.72-30.88L20.72-30.88L20.72-30.88Q20.72-26.40 21.84-24.48zM23.04-22.16L23.04-22.16L23.04-22.16Q23.44-21.60 25.08-20.64L25.08-20.64L25.08-20.64Q26.72-19.68 29.44-19.68L29.44-19.68L29.44-19.68Q32.16-19.68 33.80-20.52L33.80-20.52L33.80-20.52Q35.44-21.36 35.44-22.48L35.44-22.48L35.44-22.48Q35.44-24.40 31.12-24.40L31.12-24.40L31.12-24.40Q26.80-24.40 22.48-23.12L22.48-23.12L22.48-23.12Q22.64-22.72 23.04-22.16" fill="#51cacc" stroke="none" stroke-width="none" transform="translate(-139.19998168945312,20.812601623535155)" style="fill: rgb(81, 202, 204);"></path></g><g class="path" style="transform: scale(0.91); transform-origin: -77.879982px -4.747398px; animation: 1s linear -0.495s infinite normal forwards running breath-d18d5f19-ac3f-4da8-ac1e-c3e6915f135c;"><path d="M64.40-2.88L64.40-2.88L64.40-2.88Q63.36-1.52 61.56-0.40L61.56-0.40L61.56-0.40Q59.76 0.72 56.88 0.72L56.88 0.72L56.88 0.72Q54 0.72 52-1.12L52-1.12L52-1.12Q50-2.96 50-6.32L50-6.32L50-6.32Q50-6.96 50.16-8.40L50.16-8.40L55.36-37.20L55.36-37.20Q56.80-45.12 59.32-48.48L59.32-48.48L59.32-48.48Q61.84-51.84 66-51.84L66-51.84L66-51.84Q68.88-51.84 70.76-49.68L70.76-49.68L70.76-49.68Q72.64-47.52 72.64-43.12L72.64-43.12L72.64-43.12Q72.64-38.72 69.24-30.56L69.24-30.56L69.24-30.56Q65.84-22.40 65.84-18.64L65.84-18.64L64.40-18.64L64.40-18.64Q64.40-22.88 67.76-30.76L67.76-30.76L67.76-30.76Q71.12-38.64 71.12-43.36L71.12-43.36L71.12-43.36Q71.12-46.24 69.80-48.32L69.80-48.32L69.80-48.32Q68.48-50.40 66.56-50.40L66.56-50.40L66.56-50.40Q66.48-48.32 63.80-31.72L63.80-31.72L63.80-31.72Q61.12-15.12 58.48-0.88L58.48-0.88L58.48-0.88Q60.72-0.88 62.64-3.20L62.64-3.20L62.64-3.20Q64.56-5.52 65.36-7.84L65.36-7.84L66.24-10.24L67.68-9.60L67.68-9.60Q67.44-8.48 66.44-6.36L66.44-6.36L66.44-6.36Q65.44-4.24 64.40-2.88" fill="#51cacc" stroke="none" stroke-width="none" transform="translate(-139.19998168945312,20.812601623535155)" style="fill: rgb(157, 248, 113);"></path></g><g class="path" style="transform: scale(0.91); transform-origin: -53.439983px 5.6126px; animation: 1s linear -0.4125s infinite normal forwards running breath-d18d5f19-ac3f-4da8-ac1e-c3e6915f135c;"><path d="M89.28-31.12L89.28-31.12L89.28-31.12Q99.44-31.12 99.44-23.04L99.44-23.04L99.44-23.04Q99.44-18 94.68-15.40L94.68-15.40L94.68-15.40Q89.92-12.80 81.12-12.72L81.12-12.72L81.12-12.72Q80.96-9.84 80.96-8.16L80.96-8.16L80.96-8.16Q80.96-4.56 82.60-2.84L82.60-2.84L82.60-2.84Q84.24-1.12 86.72-1.12L86.72-1.12L86.72-1.12Q89.20-1.12 91.24-2.08L91.24-2.08L91.24-2.08Q93.28-3.04 94.48-4.36L94.48-4.36L94.48-4.36Q95.68-5.68 96.56-7.12L96.56-7.12L96.56-7.12Q98.16-9.76 98.16-10.48L98.16-10.48L99.60-9.84L99.60-9.84Q99.36-8.56 98.16-6.44L98.16-6.44L98.16-6.44Q96.96-4.32 95.52-2.96L95.52-2.96L95.52-2.96Q94.08-1.60 91.28-0.44L91.28-0.44L91.28-0.44Q88.48 0.72 85.04 0.72L85.04 0.72L85.04 0.72Q78.56 0.72 75.24-2.36L75.24-2.36L75.24-2.36Q71.92-5.44 71.92-10.80L71.92-10.80L71.92-10.80Q71.92-20.32 76.64-25.72L76.64-25.72L76.64-25.72Q81.36-31.12 89.28-31.12zM97.44-23.04L97.44-23.04Q97.44-25.68 95.88-27.40L95.88-27.40L95.88-27.40Q94.32-29.12 91.24-29.12L91.24-29.12L91.24-29.12Q88.16-29.12 85.24-25.44L85.24-25.44L85.24-25.44Q82.32-21.76 81.36-14.56L81.36-14.56L81.36-14.56Q97.44-14.64 97.44-23.04L97.44-23.04" fill="#51cacc" stroke="none" stroke-width="none" transform="translate(-139.19998168945312,20.812601623535155)" style="fill: rgb(224, 255, 119);"></path></g><g class="path" style="transform: scale(0.91); transform-origin: -19.279984px 12.6126px; animation: 1s linear -0.33s infinite normal forwards running breath-d18d5f19-ac3f-4da8-ac1e-c3e6915f135c;"><path d="M130.08 8.72L130.08 8.72L130.08 8.72Q132.96 8.72 135.04 6.48L135.04 6.48L136.16 7.44L136.16 7.44Q134.24 10.16 130.08 10.16L130.08 10.16L130.08 10.16Q128.32 10.16 126.48 9.76L126.48 9.76L126.48 9.76Q121.04 14.72 112.56 14.72L112.56 14.72L112.56 14.72Q107.52 14.72 104.76 13L104.76 13L104.76 13Q102 11.28 102 8.52L102 8.52L102 8.52Q102 5.76 103.72 4.12L103.72 4.12L103.72 4.12Q105.44 2.48 109.84 2.48L109.84 2.48L109.84 2.48Q114.24 2.48 121.44 6.08L121.44 6.08L123.92-7.20L123.92-7.20Q120.32-0.56 114.64-0.56L114.64-0.56L114.64-0.56Q103.76-0.56 103.76-11.28L103.76-11.28L103.76-11.28Q103.76-20.24 108.28-25.68L108.28-25.68L108.28-25.68Q112.80-31.12 119.84-31.12L119.84-31.12L119.84-31.12Q123.92-31.12 126.16-28.64L126.16-28.64L126.16-28.64Q126.80-27.92 127.44-26.48L127.44-26.48L128.16-30.40L128.16-30.40Q134.08-30.40 136.80-30.88L136.80-30.88L137.84-31.12L132.56-1.60L132.56-1.60Q131.36 4.64 127.76 8.48L127.76 8.48L127.76 8.48Q128.80 8.72 130.08 8.72zM112.80-8.80L112.80-8.80Q112.80-5.12 113.52-3.88L113.52-3.88L113.52-3.88Q114.24-2.64 116.24-2.64L116.24-2.64L116.24-2.64Q118.24-2.64 120.32-4.80L120.32-4.80L120.32-4.80Q122.40-6.96 123.32-8.84L123.32-8.84L123.32-8.84Q124.24-10.72 124.88-12.48L124.88-12.48L126.56-21.68L126.56-22.24L126.56-22.24Q126.56-29.60 119.84-29.60L119.84-29.60L119.84-29.60Q117.28-29.60 115.04-22.64L115.04-22.64L115.04-22.64Q112.80-15.68 112.80-8.80L112.80-8.80zM112.24 13.12L112.24 13.12L112.24 13.12Q118.64 13.12 120.88 7.60L120.88 7.60L119.76 7.04L119.76 7.04Q118.80 6.56 118.60 6.44L118.60 6.44L118.60 6.44Q118.40 6.32 117.52 5.92L117.52 5.92L117.52 5.92Q116.64 5.52 116.24 5.40L116.24 5.40L116.24 5.40Q115.84 5.28 115 4.96L115 4.96L115 4.96Q114.16 4.64 113.60 4.52L113.60 4.52L113.60 4.52Q113.04 4.40 112.32 4.24L112.32 4.24L112.32 4.24Q111.12 4 108.80 4L108.80 4L108.80 4Q106.48 4 105.08 5.12L105.08 5.12L105.08 5.12Q103.68 6.24 103.68 8.40L103.68 8.40L103.68 8.40Q103.68 10.56 106 11.84L106 11.84L106 11.84Q108.32 13.12 112.24 13.12" fill="#51cacc" stroke="none" stroke-width="none" transform="translate(-139.19998168945312,20.812601623535155)" style="fill: rgb(222, 157, 214);"></path></g><g class="path" style="transform: scale(0.91); transform-origin: 19.040024px 5.6126px; animation: 1s linear -0.2475s infinite normal forwards running breath-d18d5f19-ac3f-4da8-ac1e-c3e6915f135c;"><path d="M169.20 0.72L169.20 0.72L169.20 0.72Q162.16 0.72 161.52-5.44L161.52-5.44L161.52-5.44Q158 0.72 152.64 0.72L152.64 0.72L152.64 0.72Q147.28 0.72 144.12-2.52L144.12-2.52L144.12-2.52Q140.96-5.76 140.96-11.60L140.96-11.60L140.96-11.60Q140.96-20.72 145.44-25.92L145.44-25.92L145.44-25.92Q149.92-31.12 157.04-31.12L157.04-31.12L157.04-31.12Q162.88-31.12 164.80-25.60L164.80-25.60L164.80-25.60Q165.20-28 165.68-30.40L165.68-30.40L165.68-30.40Q171.60-30.40 174.48-30.88L174.48-30.88L175.52-31.12L170-0.88L170-0.88Q172.40-1.12 174-3.12L174-3.12L175.20-2.16L175.20-2.16Q172.80 0.72 169.20 0.72zM150-7.52L150-7.52Q150-3.92 150.92-2.52L150.92-2.52L150.92-2.52Q151.84-1.12 153.76-1.12L153.76-1.12L153.76-1.12Q155.68-1.12 157.68-3.20L157.68-3.20L157.68-3.20Q160.32-5.92 161.92-10.08L161.92-10.08L161.92-10.08Q162.16-11.12 162.84-15.08L162.84-15.08L162.84-15.08Q163.52-19.04 164-21.60L164-21.60L164-21.60Q163.76-24.64 162.32-26.88L162.32-26.88L162.32-26.88Q160.88-29.12 158.72-29.12L158.72-29.12L158.72-29.12Q154.80-29.12 152.40-22.12L152.40-22.12L152.40-22.12Q150-15.12 150-7.52L150-7.52" fill="#51cacc" stroke="none" stroke-width="none" transform="translate(-139.19998168945312,20.812601623535155)" style="fill: rgb(255, 112, 142);"></path></g><g class="path" style="transform: scale(0.91); transform-origin: 58.680016px 5.6126px; animation: 1s linear -0.165s infinite normal forwards running breath-d18d5f19-ac3f-4da8-ac1e-c3e6915f135c;"><path d="M210.64-0.88L210.64-0.88L210.64-0.88Q212.56-0.88 214.64-3.12L214.64-3.12L215.84-2.16L215.84-2.16Q215.28-1.04 213.36-0.16L213.36-0.16L213.36-0.16Q211.44 0.72 209.12 0.72L209.12 0.72L209.12 0.72Q201.84 0.72 201.84-5.84L201.84-5.84L201.84-5.84Q201.84-8.64 203.28-15.84L203.28-15.84L203.28-15.84Q204.72-23.04 204.72-25.28L204.72-25.28L204.72-25.28Q204.72-28.72 201.44-28.72L201.44-28.72L201.44-28.72Q198.80-28.72 196.36-25.28L196.36-25.28L196.36-25.28Q193.92-21.84 192.32-15.84L192.32-15.84L189.60-0.88L189.60-0.88Q192.08-1.12 193.68-3.12L193.68-3.12L194.88-2.16L194.88-2.16Q192.48 0.72 188.88 0.72L188.88 0.72L188.88 0.72Q185.28 0.72 183.24-1.12L183.24-1.12L183.24-1.12Q181.20-2.96 181.20-5.92L181.20-5.92L181.20-5.92Q181.20-7.04 182.48-14.72L182.48-14.72L185.12-29.52L185.12-29.52Q182.72-29.28 181.12-27.28L181.12-27.28L179.92-28.24L179.92-28.24Q182.32-31.12 185.96-31.12L185.96-31.12L185.96-31.12Q189.60-31.12 191.60-29.28L191.60-29.28L191.60-29.28Q193.60-27.44 193.60-24.08L193.60-24.08L193.60-23.60L193.60-23.60Q196.88-31.12 203.84-31.12L203.84-31.12L203.84-31.12Q208.56-31.12 211.20-28.44L211.20-28.44L211.20-28.44Q213.84-25.76 213.84-21.04L213.84-21.04L213.84-21.04Q213.84-18.56 212.32-11.48L212.32-11.48L212.32-11.48Q210.80-4.40 210.64-0.88" fill="#51cacc" stroke="none" stroke-width="none" transform="translate(-139.19998168945312,20.812601623535155)" style="fill: rgb(81, 202, 204);"></path></g><g class="path" style="transform: scale(0.91); transform-origin: 91.840012px 3.772602px; animation: 1s linear -0.0825s infinite normal forwards running breath-d18d5f19-ac3f-4da8-ac1e-c3e6915f135c;"><path d="M227.12-1.36L227.12-1.36L227.12-1.36Q235.04-1.36 235.04-13.04L235.04-13.04L235.04-13.04Q235.04-15.92 234.20-19.84L234.20-19.84L234.20-19.84Q233.36-23.76 233.20-24.72L233.20-24.72L233.20-24.72Q228.32-19.68 222.24-18.64L222.24-18.64L222.24-20.56L222.24-20.56Q228-21.84 233.04-27.12L233.04-27.12L233.04-27.44L233.04-27.44Q233.04-29.36 233.60-31.20L233.60-31.20L233.60-31.20Q234.16-33.04 234.72-33.92L234.72-33.92L235.28-34.80L237.20-34.80L237.20-34.80Q237.20-31.28 238.32-28.36L238.32-28.36L238.32-28.36Q239.44-25.44 240.80-23.64L240.80-23.64L240.80-23.64Q242.16-21.84 243.28-18.92L243.28-18.92L243.28-18.92Q244.40-16 244.40-12.48L244.40-12.48L244.40-12.48Q244.40-6.80 240.12-3.04L240.12-3.04L240.12-3.04Q235.84 0.72 229.84 0.72L229.84 0.72L229.84 0.72Q223.84 0.72 220.76-2L220.76-2L220.76-2Q217.68-4.72 217.68-8.28L217.68-8.28L217.68-8.28Q217.68-11.84 219.44-13.40L219.44-13.40L219.44-13.40Q221.20-14.96 223.60-14.96L223.60-14.96L223.60-14.96Q226-14.96 227.56-13.40L227.56-13.40L227.56-13.40Q229.12-11.84 229.12-9.40L229.12-9.40L229.12-9.40Q229.12-6.96 227.60-5.28L227.60-5.28L227.60-5.28Q226.08-3.60 223.68-3.60L223.68-3.60L223.68-3.60Q222.64-3.60 221.52-3.92L221.52-3.92L221.52-3.92Q223.28-1.36 227.12-1.36" fill="#51cacc" stroke="none" stroke-width="none" transform="translate(-139.19998168945312,20.812601623535155)" style="fill: rgb(157, 248, 113);"></path></g><g class="path" style="transform: scale(0.91); transform-origin: 127.120018px 5.6126px; animation: 1s linear 0s infinite normal forwards running breath-d18d5f19-ac3f-4da8-ac1e-c3e6915f135c;"><path d="M277.28 0.72L277.28 0.72L277.28 0.72Q270.24 0.72 269.60-5.44L269.60-5.44L269.60-5.44Q266.08 0.72 260.72 0.72L260.72 0.72L260.72 0.72Q255.36 0.72 252.20-2.52L252.20-2.52L252.20-2.52Q249.04-5.76 249.04-11.60L249.04-11.60L249.04-11.60Q249.04-20.72 253.52-25.92L253.52-25.92L253.52-25.92Q258-31.12 265.12-31.12L265.12-31.12L265.12-31.12Q270.96-31.12 272.88-25.60L272.88-25.60L272.88-25.60Q273.28-28 273.76-30.40L273.76-30.40L273.76-30.40Q279.68-30.40 282.56-30.88L282.56-30.88L283.60-31.12L278.08-0.88L278.08-0.88Q280.48-1.12 282.08-3.12L282.08-3.12L283.28-2.16L283.28-2.16Q280.88 0.72 277.28 0.72zM258.08-7.52L258.08-7.52Q258.08-3.92 259-2.52L259-2.52L259-2.52Q259.92-1.12 261.84-1.12L261.84-1.12L261.84-1.12Q263.76-1.12 265.76-3.20L265.76-3.20L265.76-3.20Q268.40-5.92 270-10.08L270-10.08L270-10.08Q270.24-11.12 270.92-15.08L270.92-15.08L270.92-15.08Q271.60-19.04 272.08-21.60L272.08-21.60L272.08-21.60Q271.84-24.64 270.40-26.88L270.40-26.88L270.40-26.88Q268.96-29.12 266.80-29.12L266.80-29.12L266.80-29.12Q262.88-29.12 260.48-22.12L260.48-22.12L260.48-22.12Q258.08-15.12 258.08-7.52L258.08-7.52" fill="#51cacc" stroke="none" stroke-width="none" transform="translate(-139.19998168945312,20.812601623535155)" style="fill: rgb(224, 255, 119);"></path></g></g>
</g>
</g>
<style id="breath-d18d5f19-ac3f-4da8-ac1e-c3e6915f135c" data-anikit="">@keyframes breath-d18d5f19-ac3f-4da8-ac1e-c3e6915f135c
{
  0% {
    animation-timing-function: cubic-bezier(0.9647,0.2413,-0.0705,0.7911);
    transform: scale(0.9099999999999999);
  }
  51% {
    animation-timing-function: cubic-bezier(0.9226,0.2631,-0.0308,0.7628);
    transform: scale(1.02994);
  }
  100% {
    transform: scale(0.9099999999999999);
  }
}</style></svg>